<svg xmlns="http://www.w3.org/2000/svg" viewBox="0 0 81.51 81.85"><defs><style>.cls-1{fill:none;stroke:#cddae0;stroke-miterlimit:10;}</style></defs><g id="图层_2" data-name="图层 2"><g id="图层_1-2" data-name="图层 1"><line class="cls-1" x1="40.75" x2="40.75" y2="13.79"/><line class="cls-1" x1="37.21" y1="7.16" x2="38.62" y2="20.57"/><line class="cls-1" x1="32.25" y1="0.89" x2="35.11" y2="14.38"/><line class="cls-1" x1="30.26" y1="8.64" x2="34.43" y2="21.46"/><line class="cls-1" x1="24.11" y1="3.54" x2="29.72" y2="16.13"/><line class="cls-1" x1="23.78" y1="11.52" x2="30.52" y2="23.2"/><line class="cls-1" x1="16.7" y1="7.82" x2="24.8" y2="18.97"/><line class="cls-1" x1="18.04" y1="15.7" x2="27.06" y2="25.72"/><line class="cls-1" x1="10.34" y1="13.54" x2="20.59" y2="22.77"/><line class="cls-1" x1="13.29" y1="20.97" x2="24.2" y2="28.9"/><line class="cls-1" x1="5.31" y1="20.46" x2="17.25" y2="27.36"/><line class="cls-1" x1="9.74" y1="27.12" x2="22.06" y2="32.6"/><line class="cls-1" x1="1.83" y1="28.28" x2="14.94" y2="32.54"/><line class="cls-1" x1="7.55" y1="33.87" x2="20.74" y2="36.67"/><line class="cls-1" x1="0.05" y1="36.65" x2="13.77" y2="38.09"/><line class="cls-1" x1="6.8" y1="40.93" x2="20.29" y2="40.93"/><line class="cls-1" x1="0.05" y1="45.2" x2="13.77" y2="43.76"/><line class="cls-1" x1="7.55" y1="47.99" x2="20.74" y2="45.18"/><line class="cls-1" x1="1.83" y1="53.57" x2="14.94" y2="49.31"/><line class="cls-1" x1="9.74" y1="54.74" x2="22.06" y2="49.25"/><line class="cls-1" x1="5.31" y1="61.39" x2="17.25" y2="54.5"/><line class="cls-1" x1="13.29" y1="60.88" x2="24.2" y2="52.96"/><line class="cls-1" x1="10.34" y1="68.31" x2="20.59" y2="59.09"/><line class="cls-1" x1="18.04" y1="66.16" x2="27.06" y2="56.14"/><line class="cls-1" x1="16.7" y1="74.04" x2="24.8" y2="62.88"/><line class="cls-1" x1="23.78" y1="70.33" x2="30.52" y2="58.65"/><line class="cls-1" x1="24.11" y1="78.31" x2="29.72" y2="65.72"/><line class="cls-1" x1="30.26" y1="73.22" x2="34.43" y2="60.39"/><line class="cls-1" x1="32.25" y1="80.96" x2="35.11" y2="67.47"/><line class="cls-1" x1="37.21" y1="74.69" x2="38.62" y2="61.28"/><line class="cls-1" x1="40.75" y1="81.85" x2="40.75" y2="68.06"/><line class="cls-1" x1="44.3" y1="74.69" x2="42.89" y2="61.28"/><line class="cls-1" x1="49.26" y1="80.96" x2="46.4" y2="67.47"/><line class="cls-1" x1="51.25" y1="73.22" x2="47.08" y2="60.39"/><line class="cls-1" x1="57.4" y1="78.31" x2="51.79" y2="65.72"/><line class="cls-1" x1="57.73" y1="70.33" x2="50.99" y2="58.65"/><line class="cls-1" x1="64.81" y1="74.04" x2="56.71" y2="62.88"/><line class="cls-1" x1="63.47" y1="66.16" x2="54.45" y2="56.13"/><line class="cls-1" x1="71.17" y1="68.31" x2="60.92" y2="59.09"/><line class="cls-1" x1="68.22" y1="60.88" x2="57.31" y2="52.96"/><line class="cls-1" x1="76.2" y1="61.39" x2="64.26" y2="54.5"/><line class="cls-1" x1="71.77" y1="54.74" x2="59.45" y2="49.25"/><line class="cls-1" x1="79.68" y1="53.57" x2="66.56" y2="49.31"/><line class="cls-1" x1="73.96" y1="47.99" x2="60.77" y2="45.18"/><line class="cls-1" x1="81.46" y1="45.2" x2="67.74" y2="43.76"/><line class="cls-1" x1="74.71" y1="40.93" x2="61.22" y2="40.93"/><line class="cls-1" x1="81.46" y1="36.65" x2="67.74" y2="38.09"/><line class="cls-1" x1="73.96" y1="33.87" x2="60.77" y2="36.67"/><line class="cls-1" x1="79.68" y1="28.28" x2="66.56" y2="32.54"/><line class="cls-1" x1="71.77" y1="27.12" x2="59.45" y2="32.6"/><line class="cls-1" x1="76.2" y1="20.46" x2="64.26" y2="27.36"/><line class="cls-1" x1="68.22" y1="20.97" x2="57.31" y2="28.9"/><line class="cls-1" x1="71.17" y1="13.54" x2="60.92" y2="22.77"/><line class="cls-1" x1="63.47" y1="15.7" x2="54.45" y2="25.72"/><line class="cls-1" x1="64.81" y1="7.82" x2="56.71" y2="18.97"/><line class="cls-1" x1="57.73" y1="11.52" x2="50.99" y2="23.2"/><line class="cls-1" x1="57.4" y1="3.54" x2="51.79" y2="16.13"/><line class="cls-1" x1="51.25" y1="8.64" x2="47.08" y2="21.46"/><line class="cls-1" x1="49.26" y1="0.89" x2="46.4" y2="14.38"/><line class="cls-1" x1="44.3" y1="7.16" x2="42.89" y2="20.57"/></g></g></svg>