<svg xmlns="http://www.w3.org/2000/svg" xmlns:xlink="http://www.w3.org/1999/xlink" viewBox="0 0 566.92 561.7"><defs><style>.cls-1{fill:url(#未命名的渐变_4);}.cls-2{fill:url(#未命名的渐变_4-2);}</style><linearGradient id="未命名的渐变_4" x1="475.72" y1="758.65" x2="138.7" y2="-883.56" gradientUnits="userSpaceOnUse"><stop offset="0" stop-color="#03a9f5" stop-opacity="0"/><stop offset="0.24" stop-color="#03a9f5" stop-opacity="0.17"/><stop offset="0.59" stop-color="#03a9f5" stop-opacity="0.4"/><stop offset="0.86" stop-color="#03a9f5" stop-opacity="0.55"/><stop offset="1" stop-color="#03a9f5" stop-opacity="0.6"/></linearGradient><linearGradient id="未命名的渐变_4-2" x1="238.51" y1="807.33" x2="-98.51" y2="-834.88" gradientTransform="translate(188.4 377.37) rotate(-180)" xlink:href="#未命名的渐变_4"/></defs><g id="图层_2" data-name="图层 2"><g id="图层_1-2" data-name="图层 1"><path class="cls-1" d="M377.38,0V189c0,104-84.35,188.4-188.4,188.4h0L188.4,561.7h0c209.05,0,378.52-169.47,378.52-378.52V0Z"/><path class="cls-2" d="M0,0H0A188.4,188.4,0,0,1,188.4,188.4v189a0,0,0,0,1,0,0H0a0,0,0,0,1,0,0V0A0,0,0,0,1,0,0Z" transform="translate(188.4 377.37) rotate(180)"/></g></g></svg>